<svg xmlns="http://www.w3.org/2000/svg" width="154" height="58" viewBox="0 0 154 58" role="img" aria-label="Preheat">
  <defs>
    <linearGradient id="bg" x1="13" y1="6" x2="141" y2="66" gradientUnits="userSpaceOnUse">
      <stop offset="0" stop-color="#2D3548"/>
      <stop offset="1" stop-color="#121722"/>
    </linearGradient>
    <linearGradient id="accent" x1="14" y1="12" x2="52" y2="60" gradientUnits="userSpaceOnUse">
      <stop offset="0" stop-color="#51A7FF"/>
      <stop offset="1" stop-color="#7C4DFF"/>
    </linearGradient>
    <filter id="shadow" x="-10%" y="-25%" width="120%" height="170%">
      <feDropShadow dx="0" dy="6" stdDeviation="6" flood-color="#000" flood-opacity="0.40"/>
    </filter>
    <filter id="soft" x="-20%" y="-40%" width="140%" height="180%">
      <feDropShadow dx="0" dy="2" stdDeviation="2.5" flood-color="#000" flood-opacity="0.30"/>
    </filter>
    <linearGradient id="flame" x1="64" y1="27" x2="64" y2="97" gradientUnits="userSpaceOnUse">
      <stop offset="0" stop-color="#FFB020"/>
      <stop offset="1" stop-color="#E23B2E"/>
    </linearGradient>
  </defs>
  <rect x="4" y="4" width="146" height="50" rx="29" fill="url(#bg)" filter="url(#shadow)" />
  <path d="M13 12 C38 4 116 4 141 12" fill="none" stroke="#fff" stroke-opacity="0.10" stroke-width="4" stroke-linecap="round"/>
  <g filter="url(#soft)">
    <g transform="translate(-1.2 -5.1) scale(0.55)">
      <path d="M64 27 C50 45 42 58 42 72 C42 87 52 97 64 97 C76 97 86 87 86 72 C86 63 82 55 76 48 C76 58 70 63 64 63 C64 55 66 48 70 40 C66 42 60 46 58 52 C56 44 58 35 64 27 Z" fill="url(#flame)"/>
      <path d="M64 60 C58 68 56 75 60 82 C62 85 66 85 68 82 C71 77 69 70 64 60 Z" fill="#FFFFFF" opacity="0.32"/>
    </g>
  </g>
  <text x="63" y="38" font-family="'Segoe UI', Helvetica, Arial, sans-serif" font-size="19" font-weight="500" fill="#F2F4F8">Preheat</text>
</svg>
