<svg xmlns="http://www.w3.org/2000/svg" width="154" height="58" viewBox="0 0 154 58" role="img" aria-label="Emergency Stop">
  <defs>
    <linearGradient id="bg" x1="13" y1="6" x2="141" y2="66" gradientUnits="userSpaceOnUse">
      <stop offset="0" stop-color="#2D3548"/>
      <stop offset="1" stop-color="#121722"/>
    </linearGradient>
    <linearGradient id="accent" x1="14" y1="12" x2="52" y2="60" gradientUnits="userSpaceOnUse">
      <stop offset="0" stop-color="#51A7FF"/>
      <stop offset="1" stop-color="#7C4DFF"/>
    </linearGradient>
    <filter id="shadow" x="-10%" y="-25%" width="120%" height="170%">
      <feDropShadow dx="0" dy="6" stdDeviation="6" flood-color="#000" flood-opacity="0.40"/>
    </filter>
    <filter id="soft" x="-20%" y="-40%" width="140%" height="180%">
      <feDropShadow dx="0" dy="2" stdDeviation="2.5" flood-color="#000" flood-opacity="0.30"/>
    </filter>
    <linearGradient id="danger" x1="30" y1="20" x2="98" y2="104" gradientUnits="userSpaceOnUse">
      <stop offset="0" stop-color="#FF6659"/>
      <stop offset="1" stop-color="#C81E3A"/>
    </linearGradient>
  </defs>
  <rect x="4" y="4" width="146" height="50" rx="29" fill="url(#bg)" filter="url(#shadow)" />
  <path d="M13 12 C38 4 116 4 141 12" fill="none" stroke="#fff" stroke-opacity="0.10" stroke-width="4" stroke-linecap="round"/>
  <g filter="url(#soft)">
    <g transform="translate(-1.2 -5.1) scale(0.55)">
      <path d="M94.5 74.6 L76.6 92.5 L51.4 92.5 L33.5 74.6 L33.5 49.4 L51.4 31.5 L76.6 31.5 L94.5 49.4 Z" fill="url(#danger)"/>
      <rect x="62" y="42" width="4" height="28" rx="2" fill="#FFFFFF"/>
      <circle cx="64" cy="80" r="3.2" fill="#FFFFFF"/>
    </g>
  </g>
  <text x="63" y="38" font-family="'Segoe UI', Helvetica, Arial, sans-serif" font-size="19" font-weight="500" fill="#F2F4F8">E-Stop</text>
</svg>
