<svg xmlns="http://www.w3.org/2000/svg" width="64" height="64" viewBox="0 0 64 64" role="img" aria-label="Camera">
  <defs>
    <linearGradient id="bg" x1="10" y1="7" x2="54" y2="58" gradientUnits="userSpaceOnUse">
      <stop offset="0" stop-color="#2D3548"/>
      <stop offset="1" stop-color="#121722"/>
    </linearGradient>
    <linearGradient id="accent" x1="15" y1="10" x2="49" y2="52" gradientUnits="userSpaceOnUse">
      <stop offset="0" stop-color="#51A7FF"/>
      <stop offset="1" stop-color="#7C4DFF"/>
    </linearGradient>
    <linearGradient id="accent-dim" x1="15" y1="15" x2="45" y2="35" gradientUnits="userSpaceOnUse">
      <stop offset="0" stop-color="#4A87D6"/>
      <stop offset="1" stop-color="#6B49C9"/>
    </linearGradient>
    <filter id="shadow" x="-30%" y="-30%" width="160%" height="170%">
      <feDropShadow dx="0" dy="3.5" stdDeviation="3.5" flood-color="#000" flood-opacity="0.42"/>
    </filter>
    <filter id="soft" x="-30%" y="-30%" width="160%" height="160%">
      <feDropShadow dx="0" dy="1.3" stdDeviation="1.3" flood-color="#000" flood-opacity="0.30"/>
    </filter>

  </defs>
  <circle cx="32" cy="32" r="27" fill="url(#bg)" filter="url(#shadow)"/>
  <path d="M9.45 23.79 A24 24 0 0 1 54.55 23.79" fill="none" stroke="#fff" stroke-opacity="0.10" stroke-width="3" stroke-linecap="round"/>
  <g filter="url(#soft)">
    <g transform="translate(1.92 2.16) scale(0.47)">
      <rect x="28" y="43" width="72" height="52" rx="14" fill="url(#accent)"/>
      <path d="M45 43 L51 32 H77 L83 43" fill="url(#accent)"/>
      <circle cx="64" cy="69" r="18" fill="#151B28" opacity="0.82"/>
      <circle cx="64" cy="69" r="11" fill="#FFFFFF" opacity="0.88"/>
      <circle cx="90" cy="54" r="4" fill="#FFFFFF" opacity="0.85"/>
      <path d="M35 50 H93" stroke="#FFFFFF" stroke-opacity="0.38" stroke-width="4" stroke-linecap="round"/>
    </g>
  </g>
</svg>
