<svg xmlns="http://www.w3.org/2000/svg" width="128" height="128" viewBox="0 0 128 128" role="img" aria-label="Folder">
  <defs>
    <linearGradient id="bg" x1="20" y1="14" x2="108" y2="116" gradientUnits="userSpaceOnUse">
      <stop offset="0" stop-color="#2D3548"/>
      <stop offset="1" stop-color="#121722"/>
    </linearGradient>
    <linearGradient id="accent" x1="30" y1="20" x2="98" y2="104" gradientUnits="userSpaceOnUse">
      <stop offset="0" stop-color="#51A7FF"/>
      <stop offset="1" stop-color="#7C4DFF"/>
    </linearGradient>
    <linearGradient id="accent-dim" x1="30" y1="30" x2="90" y2="70" gradientUnits="userSpaceOnUse">
      <stop offset="0" stop-color="#4A87D6"/>
      <stop offset="1" stop-color="#6B49C9"/>
    </linearGradient>
    <filter id="shadow" x="-20%" y="-20%" width="140%" height="150%">
      <feDropShadow dx="0" dy="8" stdDeviation="7" flood-color="#000" flood-opacity="0.42"/>
    </filter>
    <filter id="soft" x="-20%" y="-20%" width="140%" height="140%">
      <feDropShadow dx="0" dy="3" stdDeviation="3" flood-color="#000" flood-opacity="0.30"/>
    </filter>
  </defs>
  <rect x="10" y="10" width="108" height="108" rx="28" fill="url(#bg)" filter="url(#shadow)"/>
  <path d="M24 29 C35 17 93 17 104 30" fill="none" stroke="#fff" stroke-opacity="0.10" stroke-width="5" stroke-linecap="round"/>
  <g filter="url(#soft)">
    <path d="M26 42 C26 38.7 28.7 36 32 36 H54 C56 36 57.8 37 59 38.6 L64 45 H96 C99.3 45 102 47.7 102 51 V88 C102 91.3 99.3 94 96 94 H32 C28.7 94 26 91.3 26 88Z" fill="url(#accent-dim)"/>
    <path d="M26 52 C26 48.7 28.7 46 32 46 H96 C99.3 46 102 48.7 102 52 V88 C102 91.3 99.3 94 96 94 H32 C28.7 94 26 91.3 26 88Z" fill="url(#accent)"/>
    <path d="M33 54 H95" stroke="#FFFFFF" stroke-opacity="0.30" stroke-width="4" stroke-linecap="round"/>
  </g>
</svg>
