<svg xmlns="http://www.w3.org/2000/svg" width="128" height="128" viewBox="0 0 128 128" role="img" aria-label="Gear Settings">
  <defs>
    <linearGradient id="bg" x1="20" y1="14" x2="108" y2="116" gradientUnits="userSpaceOnUse">
      <stop offset="0" stop-color="#2D3548"/>
      <stop offset="1" stop-color="#121722"/>
    </linearGradient>
    <linearGradient id="accent" x1="30" y1="20" x2="98" y2="104" gradientUnits="userSpaceOnUse">
      <stop offset="0" stop-color="#51A7FF"/>
      <stop offset="1" stop-color="#7C4DFF"/>
    </linearGradient>
    <filter id="shadow" x="-20%" y="-20%" width="140%" height="150%">
      <feDropShadow dx="0" dy="8" stdDeviation="7" flood-color="#000" flood-opacity="0.42"/>
    </filter>
    <filter id="soft" x="-20%" y="-20%" width="140%" height="140%">
      <feDropShadow dx="0" dy="3" stdDeviation="3" flood-color="#000" flood-opacity="0.30"/>
    </filter>
  </defs>
  <rect x="10" y="10" width="108" height="108" rx="28" fill="url(#bg)" filter="url(#shadow)"/>
  <path d="M24 29 C35 17 93 17 104 30" fill="none" stroke="#fff" stroke-opacity="0.10" stroke-width="5" stroke-linecap="round"/>
  <g filter="url(#soft)">
    
<path fill="url(#accent)" d="M69 25l4 11c3 1 6 2 9 4l11-5 10 17-9 7c0 2 1 4 1 6s0 4-1 6l9 7-10 17-11-5c-3 2-6 3-9 4l-4 11H49l-4-11c-3-1-6-2-9-4l-11 5-10-17 9-7c0-2-1-4-1-6s0-4 1-6l-9-7 10-17 11 5c3-2 6-3 9-4l4-11h20z"/>
<circle cx="59" cy="65" r="19" fill="#151B28" opacity="0.82"/>
<circle cx="59" cy="65" r="10" fill="#FFFFFF" opacity="0.86"/>

  </g>
</svg>