<svg width="64" height="82" viewBox="0 0 64 82" xmlns="http://www.w3.org/2000/svg" role="img">
  <title>SnapCon icon small</title>
  <desc>SnapCon app icon small with wordmark</desc>

  <rect width="64" height="64" rx="12" fill="#1A1A2E"/>

  <line x1="18" y1="16" x2="26" y2="16" stroke="#4A90D9" stroke-width="2" opacity="0.4"/>
  <line x1="38" y1="16" x2="46" y2="16" stroke="#4A90D9" stroke-width="2" opacity="0.4"/>
  <line x1="18" y1="32" x2="24" y2="32" stroke="#4A90D9" stroke-width="2" opacity="0.4"/>
  <line x1="40" y1="32" x2="46" y2="32" stroke="#4A90D9" stroke-width="2" opacity="0.4"/>
  <line x1="18" y1="48" x2="26" y2="48" stroke="#4A90D9" stroke-width="2" opacity="0.4"/>
  <line x1="38" y1="48" x2="46" y2="48" stroke="#4A90D9" stroke-width="2" opacity="0.4"/>
  <line x1="16" y1="18" x2="16" y2="26" stroke="#4A90D9" stroke-width="2" opacity="0.4"/>
  <line x1="16" y1="38" x2="16" y2="46" stroke="#4A90D9" stroke-width="2" opacity="0.4"/>
  <line x1="32" y1="18" x2="32" y2="26" stroke="#4A90D9" stroke-width="2" opacity="0.4"/>
  <line x1="32" y1="38" x2="32" y2="46" stroke="#4A90D9" stroke-width="2" opacity="0.4"/>
  <line x1="48" y1="18" x2="48" y2="26" stroke="#4A90D9" stroke-width="2" opacity="0.4"/>
  <line x1="48" y1="38" x2="48" y2="46" stroke="#4A90D9" stroke-width="2" opacity="0.4"/>

  <circle cx="16" cy="16" r="4" fill="#4A90D9"/>
  <circle cx="32" cy="16" r="4" fill="#4A90D9"/>
  <circle cx="48" cy="16" r="4" fill="#4A90D9"/>
  <circle cx="16" cy="32" r="4" fill="#4A90D9"/>
  <circle cx="48" cy="32" r="4" fill="#4A90D9"/>
  <circle cx="16" cy="48" r="4" fill="#4A90D9"/>
  <circle cx="32" cy="48" r="4" fill="#4A90D9"/>
  <circle cx="48" cy="48" r="4" fill="#4A90D9"/>

  <circle cx="32" cy="32" r="8" fill="#7BB8F0"/>
  <circle cx="32" cy="32" r="4" fill="#C8E4FF"/>

  <!-- Scale down: Snap~27px, Con~21px, total~48px, center=32, start=8 -->
  <text x="4" y="78"
    font-family="Montserrat, 'Arial Black', Arial, sans-serif"
    font-size="12"
    font-weight="700"
    fill="#FFFFFF">Snap</text>
  <text x="31" y="78"
    font-family="Montserrat, 'Arial Black', Arial, sans-serif"
    font-size="12"
    font-weight="700"
    fill="#4A90D9">Con</text>
</svg>
